<svg width="15" height="14" viewBox="0 0 15 14" fill="none" xmlns="http://www.w3.org/2000/svg">
<path fill-rule="evenodd" clip-rule="evenodd" d="M0 12.45C0 12.0358 0.335786 11.7 0.75 11.7H14.25C14.6642 11.7 15 12.0358 15 12.45C15 12.8642 14.6642 13.2 14.25 13.2H0.75C0.335786 13.2 0 12.8642 0 12.45Z" fill="#181C34"/>
<path fill-rule="evenodd" clip-rule="evenodd" d="M0 6.85C0 6.43579 0.335786 6.1 0.75 6.1H14.25C14.6642 6.1 15 6.43579 15 6.85C15 7.26422 14.6642 7.6 14.25 7.6H0.75C0.335786 7.6 0 7.26422 0 6.85Z" fill="#181C34"/>
<path fill-rule="evenodd" clip-rule="evenodd" d="M0 1.25C0 0.835786 0.335786 0.5 0.75 0.5H14.25C14.6642 0.5 15 0.835786 15 1.25C15 1.66421 14.6642 2 14.25 2H0.75C0.335786 2 0 1.66421 0 1.25Z" fill="#181C34"/>
</svg>
