<svg width="23" height="24" viewBox="0 0 23 24" fill="none" xmlns="http://www.w3.org/2000/svg">
<path fill-rule="evenodd" clip-rule="evenodd" d="M11.6549 20.4C11.6549 19.9858 11.9907 19.65 12.4049 19.65H21.2049C21.6191 19.65 21.9549 19.9858 21.9549 20.4C21.9549 20.8142 21.6191 21.15 21.2049 21.15H12.4049C11.9907 21.15 11.6549 20.8142 11.6549 20.4Z" fill="black"/>
<path fill-rule="evenodd" clip-rule="evenodd" d="M18.8544 4.51023C18.0539 3.70966 16.7559 3.70966 15.9553 4.51023L4.14936 16.3162L3.81956 19.5451L7.0485 19.2153L18.8544 7.40937C19.655 6.60879 19.655 5.3108 18.8544 4.51023ZM14.8946 3.44957C16.281 2.06321 18.5287 2.06321 19.9151 3.44957C21.3015 4.83593 21.3015 7.08367 19.9151 8.47003L8.01921 20.3659C7.83331 20.5518 7.58899 20.6679 7.32745 20.6946L3.66669 21.0685C2.87883 21.149 2.21567 20.4858 2.29614 19.698L2.67005 16.0372C2.69676 15.7757 2.81286 15.5314 2.99875 15.3455L14.8946 3.44957Z" fill="black"/>
</svg>
